<svg width="16" height="16" viewBox="0 0 16 16" fill="none" xmlns="http://www.w3.org/2000/svg">
<rect width="16" height="16" rx="2" fill="#750707"/>
<path d="M12.4162 2.92921C9.20154 6.37888 8.7759 7.15953 8.01052 7.15953C7.24515 7.15953 6.81951 6.37888 3.60485 2.92921H12.4162ZM3.37062 2.62683C3.21451 2.62683 3.20958 2.74158 3.27103 2.8089C4.72885 4.40688 5.97034 5.86652 7.00783 7.2061C7.42816 7.7486 7.68177 8.40276 7.73212 9.08744C7.76642 9.55546 7.75359 10.032 7.75359 10.4402C7.75359 11.4952 7.63043 12.5211 7.5607 12.6244C7.44556 12.7954 6.64921 12.9935 5.6127 13.1277C5.43907 13.1504 5.44475 13.3731 5.63442 13.3731H10.3866C10.5763 13.3731 10.582 13.1505 10.4083 13.1277C9.37184 12.9935 8.57549 12.7954 8.46035 12.6244C8.39062 12.5211 8.26746 11.4952 8.26746 10.4402C8.26746 10.032 8.25463 9.55533 8.28893 9.08744C8.33928 8.40276 8.59289 7.74848 9.01322 7.2061C10.0507 5.86652 11.2922 4.40688 12.75 2.8089C12.8113 2.74158 12.8065 2.62683 12.6503 2.62683L3.37062 2.62683ZM6.48421 3.7731L7.2465 6.10047L5.62221 3.7731H4.67147L4.80068 3.91441C5.19238 4.34339 5.52916 4.71655 5.79967 5.01646C7.21035 6.57948 7.56046 6.94844 8.01052 6.94844C8.46059 6.94844 8.8107 6.57948 10.2216 5.01621C10.4771 4.7331 10.8271 4.34525 11.2204 3.91441L11.3496 3.7731H6.48421Z" fill="white"/>
</svg>
